<?xml version="1.0" encoding="iso-8859-1"?>
<svg xmlns="http://www.w3.org/2000/svg" xmlns:xlink= "http://www.w3.org/1999/xlink" x="0px" y="0px" viewBox="0 0 80 70" style="enable-background:new 0 0 512 512;" xml:space="preserve" fill="#62b6ff">
  <path d="M57.362.008c-4.017.004-8.066.2-11.981 1.163-4.783.88-9.748 1.177-14.258 3.148-3.1 1.194-6.294 2.461-8.713 4.819-2.77 2.229-5.605 4.386-8.325 6.674-1.401.788-2.993 1.253-4.215 2.339-2.655 1.868-5.226 4.007-6.917 6.822-1.199 1.116-1.52 3.394-.063 4.439 1.14.814 2.477 1.308 3.833 1.626 2.013-.115 4.015-.37 6.028-.491 1.776 2.232 3.041 4.806 4.404 7.297.65 1.22-.255 2.462-1.514 2.631-1.645.465-3.289-.293-4.927-.421-3.333-.55-7.09-.423-9.882 1.703-1.353.53-.944 2.257.423 2.37 1.814.304 3.547 1.403 5.446 1.025 4.901-.13 9.866-.034 14.67-1.166 2.424.028 4.837.381 7.265.26 5.156-.02 10.308.402 15.464.252 1.077-.385 2.036.03 2.726.863 2.286 1.659 5.213 2.006 7.959 2.074 2.362-.1 4.722-.619 6.857-1.649.55-.791 1.474-.832 2.331-.693 3.005.024 6.198.21 8.96-1.183 1.731-.95 3.005-2.718 3.217-4.699.424-2.238.653-4.812-.735-6.774-1.154-.732-2.658.056-3.89.258-.794.201-1.423 1.185-1.92 1.445-1.976-1.86-3.655-4.287-6.356-5.141-3.706-1.508-7.5-3.183-11.579-3.167-4.482-.172-9.12.033-13.32 1.749-1.151.536-1.802 1.998-3.23 1.81-.986.014-2.151.486-2.514-.748-1.147-1.5-2.853-2.522-4.677-2.966 1.89-1.737 4.584-1.859 6.995-2.192 3.948-.277 7.406-2.383 10.797-4.23 1.842-1.049 3.835-1.79 5.676-2.843 3.188-1.669 6.32-3.452 9.328-5.43 1.382-.78 3.01-.893 4.56-.836.805-.005 3.146-.068 2.31-1.313-.852-.563-1.878-.848-2.865-1.094-2.925-.61-5.924-.2-8.883-.335-1.339.337-.133-1.402.058-1.99.967-1.89 2.61-3.316 4.325-4.513.453-1.259-1.459-.798-2.207-.895l-.661.001zm-1.847 1.52c-2.07 1.58-3.35 4.01-3.924 6.516-2.266.71-4.66.833-6.972 1.336-3.506.508-7.044 1.035-10.375 2.295-3.79 1.191-7.284 3.334-10 6.242-.964.917-2.066 1.707-2.85 2.796.822.756 2.366.453 3.251.118 2.362-1.916 4.357-4.29 7.002-5.85 4.383-2.73 9.523-3.903 14.598-4.489 3.137-.566 6.263-1.222 9.414-1.701a33.779 33.779 0 0 1 6.015.283c-1.662.307-3.475.515-4.768 1.721-3.39 2.232-6.981 4.149-10.583 6.008-3.924 1.471-7.213 4.456-11.407 5.226-2.887.392-5.817.82-8.513 1.982-.829.65-2.742 1.422-2.21 2.668.824.546 1.9.536 2.762 1.041 1.293.597 2.436 1.584 3.075 2.87 1.016.714 2.33.167 3.475.289 1.729-.1 3.534.11 5.194-.452 1.125-.744 1.867-2.084 3.272-2.369 2.79-1.164 5.87-.701 8.803-.673 3.976.25 7.592 2.08 11.192 3.62 1.739 1.144 3.148 2.699 4.514 4.25.298.965-.117 2.09-.74 2.837-1.119 1.33-2.221 2.675-3.244 4.08-1.382-1.273-1.875-3.209-3.23-4.512-1.914-2.27-3.942-4.49-6.39-6.197-.995-.468-3.215-.78-3.23.793.09 1.487 1.085 3.052.265 4.492-1.21 1.316-2.957 1.967-4.512 2.79-1.216.747-2.59 1.24-4.031 1.245-3.128-.011-6.334.096-9.356-.857-1.487-.45-2.876-1.147-4.236-1.884-.838-.48-1.795-.323-2.676-.096-.682.025-1.25.583-.837 1.206-.31 1.82-1.999 3.092-3.73 3.446-4.301 1.32-8.85.866-13.279.99-1.266-.087-2.398-.723-3.617-1.014 1.048-.783 2.372-1.634 3.732-1.183 3.5.526 7.193 1.306 10.638.082 1.186-.61 2.73-1.263 2.96-2.746-.465-2.528-2.265-4.478-3.348-6.738-.903-1.445-1.817-2.887-2.865-4.233-1.416-.224-2.749.532-3.81 1.389-1.59.836-3.385-.03-4.82-.793-1.103-.473-.98-1.928-.199-2.636 1.577-2.423 3.537-4.638 5.99-6.201 1.46-1.046 2.961-2.1 4.687-2.658 2.233-1.78 4.345-3.715 6.689-5.356 2.464-1.929 4.752-4.26 7.797-5.255a44.472 44.472 0 0 1 13.545-3.6c3.469-.56 6.936-1.364 10.47-1.26.1.021.952-.169.412.142zm17.368 33.307c.037 2.306.35 4.867-1.087 6.856-1.039 1.31-2.736 2.204-4.435 1.938-.774-.036-2.357.006-2.63-.32 1.44-.682 1.917-2.37 3.118-3.331 1.65-1.742 3.514-3.279 5.034-5.143zm-18.658 1.636c1.894 1.844 3.367 4.073 4.601 6.399 1.148.667.287 1.99-.584 2.419-1.717.905-3.752.608-5.55.133-1.572-.417-3.283-1.12-4.128-2.595-.6-1.227-.006-2.882 1.31-3.342 1.457-.814 3.272-1.634 3.706-3.414-.034-.51.494.385.645.4z"/>
  <path d="M12.329 22.079c-1.539-.2-2.933.996-3.449 2.374 1.038.74 2.356-.045 3.517.201 1.102-.235 1.82-1.326 2.496-2.094-.194-1.03-1.87-.238-2.564-.481zM41.32 53.935c-1.4.785-1.748 2.507-2.812 3.615-.547.525-1.122 2.326-1.86 1.131-.997-1.046-1.429-2.53-2.476-3.518-1.06-.458-2.23-.602-3.31-1.01-1.004.349-1.46 1.684-2.241 2.438-.723.778-1.366 2.084-2.18 2.5-1.28-.865-2.004-2.278-3.019-3.404-1.533-.427-3.131-.528-4.714-.586-1.239.376-.782 2.059-1.655 2.824-.53.568-1.257 1.568-1.883 1.657-1.044-1.213-1.776-2.719-3.094-3.68-1.555-.145-3.09-.468-4.653-.528-.954.825-1.334 2.161-2.472 2.813-1.243.969-2.762 1.46-4.211 2.028-.523.893 1.312.82 1.893 1.012 2.368.302 4.73-.52 6.746-1.714 1.055 1.08 1.821 2.49 3.179 3.241 1.972.134 4.017-.02 5.872-.733 1.076-.536 1.813-1.536 2.826-2.163 1.132.764 1.847 1.961 2.799 2.913 1.846 1.097 4.153.173 5.625-1.14.895-.367 1.654-1.382 2.273-1.799 1.965 1.68 4.534 2.971 7.183 2.616 1.728-.575 2.892-2.07 3.98-3.446 1.106.837 2.068 2.102 3.554 2.22 1.945.787 4.063.296 6.082.208.646-.413 1.552-2.063 2.161-.694 1.183 1.412 3.196 1.188 4.845 1.184 1.324-.094 2.762.29 3.988-.366.933-.676 1.96-1.22 2.9-1.889 1.213 1.01 2.478 1.96 3.826 2.783 1.47-.283 3.027-.099 4.436-.676.057-1.07-1.555-1.281-2.136-2.058-1.441-1.161-2.76-2.64-3.215-4.478.14-1.182-1.399-.377-2.057-.471-1.143.09-2.307-.093-3.434.176-.6 2.038-1.932 4.017-3.994 4.777-.922-.595-1.285-1.905-1.808-2.878-.345-1.299-1.687-1.395-2.782-1.634-1.08-.232-2.184-.402-3.292-.368-.276.982.727 2.364-.663 2.906-.911.581-2.256 1.956-3.09.604-1.098-1.024-2.117-2.146-2.925-3.416-1.137-.26-2.3-.41-3.395-.833a3.746 3.746 0 0 0-.796-.164z"/>
</svg>
